<svg width="800" height="400" viewBox="0 0 800 400" xmlns="http://www.w3.org/2000/svg"><mask id="satori_om-id"><rect x="0" y="0" width="800" height="400" fill="#fff"/></mask><rect x="0" y="0" width="800" height="400" fill="#fff"/><path fill="black" d="M295.3 172L295.3 172L287.0 172L287.0 148.7L295.3 148.7Q298.9 148.7 301.4 150.1Q303.9 151.5 305.3 154.1Q306.7 156.7 306.7 160.3L306.7 160.3Q306.7 164.0 305.3 166.6Q303.9 169.2 301.4 170.6Q298.8 172 295.3 172ZM291.9 152.9L291.9 167.8L295.1 167.8Q297.3 167.8 298.7 167.0Q300.2 166.2 301.0 164.6Q301.8 162.9 301.8 160.3L301.8 160.3Q301.8 157.8 301.0 156.1Q300.2 154.5 298.8 153.7Q297.3 152.9 295.1 152.9L295.1 152.9L291.9 152.9ZM310.3 172L310.3 148.7L316.4 148.7L322.8 164.4L323.0 164.4L329.5 148.7L335.5 148.7L335.5 172L330.8 172L330.8 156.9L330.6 156.9L324.5 171.9L321.3 171.9L315.3 156.8L315.1 156.8L315.1 172L310.3 172ZM347.8 172L347.8 172L339.6 172L339.6 148.7L347.9 148.7Q351.4 148.7 353.9 150.1Q356.5 151.5 357.8 154.1Q359.2 156.7 359.2 160.3L359.2 160.3Q359.2 164.0 357.8 166.6Q356.5 169.2 353.9 170.6Q351.4 172 347.8 172ZM344.5 152.9L344.5 167.8L347.6 167.8Q349.8 167.8 351.3 167.0Q352.8 166.2 353.5 164.6Q354.3 162.9 354.3 160.3L354.3 160.3Q354.3 157.8 353.5 156.1Q352.8 154.5 351.3 153.7Q349.8 152.9 347.6 152.9L347.6 152.9L344.5 152.9ZM362.8 172L362.8 148.7L368.9 148.7L375.3 164.4L375.6 164.4L382.0 148.7L388.1 148.7L388.1 172L383.3 172L383.3 156.9L383.1 156.9L377.1 171.9L373.8 171.9L367.8 156.8L367.6 156.8L367.6 172L362.8 172ZM412.6 156.9L412.6 156.9L407.7 156.9Q407.5 155.9 407.1 155.2Q406.7 154.4 406.0 153.9Q405.4 153.3 404.5 153.0Q403.7 152.8 402.7 152.8L402.7 152.8Q400.9 152.8 399.5 153.7Q398.2 154.5 397.4 156.2Q396.7 157.9 396.7 160.4L396.7 160.4Q396.7 162.9 397.4 164.5Q398.2 166.2 399.5 167.1Q400.9 168.0 402.6 168.0L402.6 168.0Q403.6 168.0 404.5 167.7Q405.3 167.4 406.0 166.9Q406.6 166.4 407.1 165.7Q407.5 165.0 407.7 164.0L407.7 164.0L412.6 164.1Q412.5 165.7 411.7 167.2Q410.9 168.6 409.6 169.8Q408.3 171.0 406.6 171.6Q404.8 172.3 402.5 172.3L402.5 172.3Q399.4 172.3 397.0 170.9Q394.5 169.5 393.1 166.8Q391.7 164.2 391.7 160.4L391.7 160.4Q391.7 156.6 393.1 153.9Q394.6 151.2 397.0 149.8Q399.5 148.4 402.5 148.4L402.5 148.4Q404.6 148.4 406.3 149.0Q408.0 149.5 409.4 150.6Q410.7 151.7 411.6 153.3Q412.4 154.9 412.6 156.9ZM421.1 172L416.2 172L416.2 148.7L421.1 148.7L421.1 158.3L431.1 158.3L431.1 148.7L436.0 148.7L436.0 172L431.1 172L431.1 162.4L421.1 162.4L421.1 172ZM442.8 172.3L442.8 172.3Q441.7 172.3 440.9 171.5Q440.1 170.7 440.1 169.6L440.1 169.6Q440.1 168.5 440.9 167.7Q441.7 166.9 442.8 166.9L442.8 166.9Q443.9 166.9 444.7 167.7Q445.5 168.5 445.5 169.6L445.5 169.6Q445.5 170.3 445.1 170.9Q444.8 171.6 444.1 171.9Q443.5 172.3 442.8 172.3ZM457.8 172L457.8 172L449.6 172L449.6 148.7L457.9 148.7Q461.4 148.7 463.9 150.1Q466.5 151.5 467.8 154.1Q469.2 156.7 469.2 160.3L469.2 160.3Q469.2 164.0 467.8 166.6Q466.5 169.2 463.9 170.6Q461.4 172 457.8 172ZM454.5 152.9L454.5 167.8L457.6 167.8Q459.8 167.8 461.3 167.0Q462.8 166.2 463.6 164.6Q464.3 162.9 464.3 160.3L464.3 160.3Q464.3 157.8 463.6 156.1Q462.8 154.5 461.3 153.7Q459.8 152.9 457.6 152.9L457.6 152.9L454.5 152.9ZM488.6 172L472.9 172L472.9 148.7L488.5 148.7L488.5 152.8L477.8 152.8L477.8 158.3L487.7 158.3L487.7 162.4L477.8 162.4L477.8 167.9L488.6 167.9L488.6 172ZM491.2 148.7L496.7 148.7L502.3 166.4L502.5 166.4L508.1 148.7L513.6 148.7L505.6 172L499.2 172L491.2 148.7Z "/><mask id="satori_om-id-1"><rect x="299" y="220" width="203" height="39" fill="#fff"/></mask><path fill="black" d="M305.9 251L301.0 251L301.0 227.7L305.9 227.7L305.9 237.3L315.9 237.3L315.9 227.7L320.8 227.7L320.8 251L315.9 251L315.9 241.4L305.9 241.4L305.9 251ZM332.8 251.3L332.8 251.3Q330.1 251.3 328.1 250.2Q326.2 249.1 325.1 247.1Q324.1 245.1 324.1 242.4L324.1 242.4Q324.1 239.7 325.1 237.6Q326.2 235.6 328.1 234.5Q330 233.3 332.6 233.3L332.6 233.3Q334.3 233.3 335.8 233.9Q337.3 234.4 338.4 235.5Q339.5 236.6 340.1 238.3Q340.8 240.0 340.8 242.2L340.8 242.2L340.8 243.5L326.0 243.5L326.0 240.5L336.2 240.5Q336.2 239.5 335.8 238.7Q335.3 237.9 334.5 237.4Q333.7 236.9 332.6 236.9L332.6 236.9Q331.5 236.9 330.7 237.4Q329.9 237.9 329.4 238.8Q328.9 239.6 328.9 240.7L328.9 240.7L328.9 243.5Q328.9 244.8 329.4 245.8Q329.9 246.7 330.7 247.2Q331.6 247.7 332.8 247.7L332.8 247.7Q333.6 247.7 334.3 247.5Q335.0 247.3 335.5 246.8Q335.9 246.4 336.2 245.7L336.2 245.7L340.7 246Q340.3 247.6 339.3 248.8Q338.2 250.0 336.6 250.7Q334.9 251.3 332.8 251.3ZM343.9 227.7L348.8 227.7L348.8 251L343.9 251L343.9 227.7ZM352.6 227.7L357.5 227.7L357.5 251L352.6 251L352.6 227.7ZM369.2 251.3L369.2 251.3Q366.6 251.3 364.7 250.2Q362.7 249.1 361.7 247.1Q360.6 245.0 360.6 242.3L360.6 242.3Q360.6 239.6 361.7 237.6Q362.7 235.6 364.7 234.4Q366.6 233.3 369.2 233.3L369.2 233.3Q371.9 233.3 373.8 234.4Q375.7 235.6 376.8 237.6Q377.8 239.6 377.8 242.3L377.8 242.3Q377.8 245.0 376.8 247.1Q375.7 249.1 373.8 250.2Q371.9 251.3 369.2 251.3ZM369.2 247.6L369.2 247.6Q370.5 247.6 371.3 246.9Q372.1 246.2 372.5 245.0Q372.9 243.8 372.9 242.3L372.9 242.3Q372.9 240.8 372.5 239.6Q372.1 238.4 371.3 237.7Q370.5 237.0 369.2 237.0L369.2 237.0Q368.0 237.0 367.2 237.7Q366.4 238.4 366.0 239.6Q365.6 240.8 365.6 242.3L365.6 242.3Q365.6 243.8 366.0 245.0Q366.4 246.2 367.2 246.9Q368.0 247.6 369.2 247.6ZM382.2 247.8L386.2 247.8L386.1 249.1Q386.0 250.6 385.6 252.1Q385.1 253.6 384.7 254.8Q384.2 256.0 384.0 256.7L384.0 256.7L380.8 256.7Q381.0 256.0 381.3 254.8Q381.6 253.6 381.9 252.1Q382.1 250.6 382.2 249.1L382.2 249.1L382.2 247.8Z M408.2 251L403.4 251L396.8 227.7L402.1 227.7L406.0 243.9L406.2 243.9L410.4 227.7L415.0 227.7L419.3 243.9L419.5 243.9L423.3 227.7L428.7 227.7L422.0 251L417.2 251L412.8 235.8L412.6 235.8L408.2 251ZM437.2 251.3L437.2 251.3Q434.6 251.3 432.7 250.2Q430.7 249.1 429.7 247.1Q428.6 245.0 428.6 242.3L428.6 242.3Q428.6 239.6 429.7 237.6Q430.7 235.6 432.7 234.4Q434.6 233.3 437.2 233.3L437.2 233.3Q439.9 233.3 441.8 234.4Q443.7 235.6 444.8 237.6Q445.8 239.6 445.8 242.3L445.8 242.3Q445.8 245.0 444.8 247.1Q443.7 249.1 441.8 250.2Q439.9 251.3 437.2 251.3ZM437.3 247.6L437.3 247.6Q438.5 247.6 439.3 246.9Q440.1 246.2 440.5 245.0Q440.9 243.8 440.9 242.3L440.9 242.3Q440.9 240.8 440.5 239.6Q440.1 238.4 439.3 237.7Q438.5 237.0 437.3 237.0L437.3 237.0Q436.0 237.0 435.2 237.7Q434.4 238.4 434.0 239.6Q433.6 240.8 433.6 242.3L433.6 242.3Q433.6 243.8 434.0 245.0Q434.4 246.2 435.2 246.9Q436.0 247.6 437.3 247.6ZM453.8 251L449.0 251L449.0 233.5L453.7 233.5L453.7 236.6L453.9 236.6Q454.3 235.0 455.5 234.1Q456.6 233.3 458.1 233.3L458.1 233.3Q458.4 233.3 458.8 233.3Q459.3 233.4 459.6 233.5L459.6 233.5L459.6 237.8Q459.2 237.7 458.6 237.6Q458.0 237.5 457.5 237.5L457.5 237.5Q456.5 237.5 455.6 238.0Q454.8 238.4 454.3 239.2Q453.8 240.1 453.8 241.1L453.8 241.1L453.8 251ZM462.1 227.7L466.9 227.7L466.9 251L462.1 251L462.1 227.7ZM477.2 251.3L477.2 251.3Q475.2 251.3 473.6 250.3Q472.0 249.2 471.1 247.2Q470.1 245.2 470.1 242.3L470.1 242.3Q470.1 239.3 471.1 237.3Q472.1 235.3 473.7 234.3Q475.3 233.3 477.2 233.3L477.2 233.3Q478.7 233.3 479.6 233.8Q480.6 234.3 481.2 235.0Q481.8 235.8 482.2 236.5L482.2 236.5L482.3 236.5L482.3 227.7L487.1 227.7L487.1 251L482.4 251L482.4 248.2L482.2 248.2Q481.8 248.9 481.2 249.6Q480.6 250.4 479.6 250.8Q478.6 251.3 477.2 251.3ZM478.7 247.4L478.7 247.4Q479.9 247.4 480.7 246.8Q481.5 246.1 482.0 245.0Q482.4 243.8 482.4 242.3L482.4 242.3Q482.4 240.7 482.0 239.6Q481.5 238.4 480.7 237.8Q479.9 237.2 478.7 237.2L478.7 237.2Q477.5 237.2 476.7 237.8Q475.9 238.5 475.5 239.6Q475.1 240.8 475.1 242.3L475.1 242.3Q475.1 243.8 475.5 245.0Q475.9 246.1 476.7 246.8Q477.5 247.4 478.7 247.4ZM491.8 227.7L496.9 227.7L496.4 244.0L492.3 244.0L491.8 227.7ZM494.4 251.3L494.4 251.3Q493.2 251.3 492.4 250.5Q491.6 249.7 491.6 248.6L491.6 248.6Q491.6 247.5 492.4 246.7Q493.2 245.9 494.4 245.9L494.4 245.9Q495.4 245.9 496.3 246.7Q497.1 247.5 497.1 248.6L497.1 248.6Q497.1 249.3 496.7 249.9Q496.3 250.6 495.7 250.9Q495.1 251.3 494.4 251.3Z "/></svg>